# AST/ASF file generated using VICON BodyLanguage
# -----------------------------------------------
:version 1.10
:name VICON
:units
  mass 1.0
  length 0.45
  angle deg
:documentation
   .ast/.asf automatically generated from VICON data using
   VICON BodyBuilder and BodyLanguage model FoxedUp or BRILLIANT.MOD
:root
   order TX TY TZ RX RY RZ
   axis XYZ
   position 0 0 0  
   orientation 0 0 0 
:bonedata
  begin
     id 1 
     name lhipjoint
     direction 0.734343 -0.627749 0.258209 
     length 2.5437 
     axis 0 0 0  XYZ
  end
  begin
     id 2 
     name lfemur
     direction 0.34202 -0.939693 0  
     length 6.7391  
     axis 0 0 20  XYZ
    dof rx ry rz
    limits (-160.0 20.0)
           (-70.0 70.0)
           (-60.0 70.0)
  end
  begin
     id 3 
     name ltibia
     direction 0.34202 -0.939693 0   
     length 7.21536   
     axis 0 0 20   XYZ
    dof rx
    limits (-10.0 170.0)
  end
  begin
     id 4 
     name lfoot
     direction 0.0489572 -0.134509 0.989702   
     length 1.61313   
     axis -90 7.62852e-016 20   XYZ
    dof rx rz
    limits (-45.0 90.0)
           (-70.0 20.0)
  end
  begin
     id 5 
     name ltoes
     direction 1.53451e-011 -4.21692e-011 1   
     length 0.823104   
     axis -90 7.62852e-016 20   XYZ
    dof rx
    limits (-90.0 20.0)
  end
  begin
     id 6 
     name rhipjoint
     direction -0.746398 -0.615468 0.253157   
     length 2.59446  
     axis 0 0 0  XYZ 
  end
  begin
     id 7 
     name rfemur
     direction -0.34202 -0.939693 0   
     length 6.7075   
     axis 0 0 -20   XYZ
    dof rx ry rz
    limits (-160.0 20.0)
           (-70.0 70.0)
           (-70.0 60.0)
  end
  begin
     id 8 
     name rtibia
     direction -0.34202 -0.939693 0   
     length 7.27262   
     axis 0 0 -20   XYZ
    dof rx
    limits (-10.0 170.0)
 end
 begin
     id 9 
     name rfoot
     direction -0.0455203 -0.125066 0.991104   
     length 1.91095  
     axis -90 -7.62852e-016 -20   XYZ
    dof rx rz
    limits (-45.0 90.0)
           (-20.0 70.0)
  end
  begin
     id 10 
     name rtoes
     direction -1.53601e-011 -4.21913e-011 1   
     length 0.969037   
     axis -90 -7.62852e-016 -20   XYZ
    dof rx
    limits (-90.0 20.0)
  end
  begin
     id 11 
     name lowerback
     direction 0.0181546 0.999122 -0.0377542   
     length 1.99916   
     axis 0 0 0   XYZ
    dof rx ry rz
    limits (-20.0 45.0)
           (-30.0 30.0)
           (-30.0 30.0)
  end
  begin
     id 12 
     name upperback
     direction 0.0203486 0.99589 0.0882534   
     length 1.951   
     axis 0 0 0   XYZ
    dof rx ry rz
    limits (-20.0 45.0)
           (-30.0 30.0)
           (-30.0 30.0)
  end
  begin
     id 13 
     name thorax
     direction 0.0131685 0.994241 0.106355   
     length 1.97461   
     axis 0 0 0   XYZ
    dof rx ry rz
    limits (-20.0 45.0)
           (-30.0 30.0)
           (-30.0 30.0)
  end
  begin
     id 14 
     name lowerneck
     direction -0.0281395 0.999325 0.023617   
     length 1.7959   
     axis 0 0 0   XYZ
    dof rx ry rz
    limits (-20.0 45.0)
           (-30.0 30.0)
           (-30.0 30.0)
  end
  begin
     id 15 
     name upperneck
     direction 0.0288721 0.991984 -0.123019   
     length 1.79917   
     axis 0 0 0   XYZ
    dof rx ry rz
    limits (-20.0 45.0)
           (-30.0 30.0)
           (-30.0 30.0)
  end
  begin
     id 16
     name head
     direction 0.0133797 0.998944 -0.0439492  
     length 1.80902  
     axis 0 0 0   XYZ
    dof rx ry rz
    limits (-20.0 45.0)
           (-30.0 30.0)
           (-30.0 30.0)
  end
  begin
     id 17 
     name lclavicle
     direction 0.919195 0.377107 0.113449  
     length 3.17815  
     axis 0 0 0   XYZ
    dof ry rz
    limits (-20.0 10.0)
           (0.0 20.0)
  end
  begin
     id 18 
     name lhumerus
     direction 1 -4.48959e-011 2.13129e-027   
     length 4.84137   
     axis 180 -30 -90   XYZ
    dof rx ry rz
    limits (-60.0 90.0)
           (-90.0 90.0)
           (-90.0 90.0)
  end
  begin
     id 19
     name lradius
     direction 1 -4.48957e-011 -6.30627e-028   
     length 3.2452   
     axis 180 -30 -90   XYZ
    dof rx
    limits (-10.0 170.0)
  end
  begin
     id 20
     name lwrist
     direction 1 -4.4901e-011 9.13299e-027   
     length 1.6226   
     axis -6.84618e-015 90 90   XYZ
    dof ry
    limits (-180.0 0.0)
 end
  begin
     id 21 
     name lhand
     direction 1 -4.48816e-011 1.82293e-026   
     length 0.521221   
     axis -1.16502e-014 90 90   XYZ
    dof rx rz
    limits (-90.0 90.0)
           (-45.0 45.0)
  end
  begin
     id 22 
     name lfingers
     direction 1 -4.49108e-011 3.65687e-026   
     length 0.420221   
     axis -2.33008e-014 90 90   XYZ
    dof rx
    limits (0.0 90.0)
  end
  begin
     id 23
     name lthumb
     direction 0.707107 -6.34943e-011 0.707107   
     length 0.603356   
     axis -90 45 5.69224e-014   XYZ
    dof rx rz
    limits (-45.0 45.0)
           (-45.0 45.0)
  end
  begin
     id 24 
     name rclavicle
     direction -0.90847 0.38596 0.160368   
     length 3.12973  
     axis 0 0 0   XYZ 
    dof ry rz
    limits (-10.0 20.0)
           (-20.0 0.0)
  end
  begin
     id 25 
     name rhumerus
     direction -1 -4.48974e-011 4.47268e-028  
     length 4.72284   
     axis 180 30 90   XYZ
    dof rx ry rz
    limits (-90.0 60.0)
           (-90.0 90.0)
           (-90.0 90.0)
  end
  begin
     id 26 
     name rradius
     direction -1 -4.48969e-011 3.43203e-027   
     length 3.23459   
     axis 180 30 90   XYZ
    dof rx
    limits (-10.0 170.0)
  end
  begin
     id 27 
     name rwrist
     direction -1 -4.48969e-011 9.12911e-027   
     length 1.6173   
     axis -6.84618e-015 -90 -90   XYZ
    dof ry
    limits (-180.0 0.0)
  end
  begin
     id 28
     name rhand
     direction -1 -4.49194e-011 1.83006e-026   
     length 0.307416   
     axis -1.16502e-014 -90 -90   XYZ
    dof rx rz
    limits (-90.0 90.0)
           (-45.0 45.0)
  end
  begin
     id 29
     name rfingers
     direction -1 -4.48423e-011 3.63103e-026   
     length 0.247847   
     axis -2.33008e-014 -90 -90   XYZ
    dof rx
    limits (0.0 90.0)
  end
  begin
     id 30
     name rthumb
     direction -0.707107 -6.34802e-011 0.707107   
     length 0.35586   
     axis -90 -45 -5.69224e-014   XYZ
    dof rx rz
    limits (-45.0 45.0)
           (-45.0 45.0)
  end
:hierarchy
  begin
    root lhipjoint rhipjoint lowerback
    lhipjoint lfemur
    lfemur ltibia
    ltibia lfoot
    lfoot ltoes
    rhipjoint rfemur
    rfemur rtibia
    rtibia rfoot
    rfoot rtoes
    lowerback upperback
    upperback thorax
    thorax lowerneck lclavicle rclavicle
    lowerneck upperneck
    upperneck head
    lclavicle lhumerus
    lhumerus lradius
    lradius lwrist
    lwrist lhand lthumb
    lhand lfingers
    rclavicle rhumerus
    rhumerus rradius
    rradius rwrist
    rwrist rhand rthumb
    rhand rfingers
  end

#!OML:ASF H:\Terrain\Patient Classification 1\Animal1\Tuesday\Animal1.ASF
:FULLY-SPECIFIED
:DEGREES
420
root 11.3698 16.9756 -9.94654 12.3728 -45.4763 1.01213
lowerback 4.45064 1.29847 0.956118
upperback -6.64101 1.8609 0.905908
thorax -9.5223 0.855075 0.195263
lowerneck 0.466424 4.9239 -1.13581
upperneck 4.2809 6.32333 6.82048
head 0.988276 3.21592 2.37397
rclavicle -6.00081e-014 -4.77083e-015
rhumerus -52.2325 -20.8009 20.3889
rradius 25.2818
rwrist -65.3515
rhand -47.1418 12.3601
rfingers 7.12502
rthumb -19.8436 -16.6469
lclavicle -6.00081e-014 -4.77083e-015
lhumerus -60.5885 40.1126 -40.9087
lradius 22.3218
lwrist -12.7379
lhand 8.43504 73.8519
lfingers 7.12502
lthumb 33.6406 619.285
rfemur -9.78228 17.743 27.6367
rtibia 18.711
rfoot 3.01703 -14.709
rtoes -15.0482
lfemur -44.5036 -9.59673 -11.0454
ltibia 38.3198
lfoot 4.7555 6.60681
ltoes 2.83062
421
root 11.3479 16.9894 -9.90402 12.8045 -45.3717 1.02297
lowerback 4.60934 1.33796 0.973106
upperback -6.69532 1.92161 0.929261
thorax -9.67757 0.883215 0.198576
lowerneck 0.464636 4.83963 -1.45272
upperneck 3.48088 6.26231 6.73658
head 0.731726 3.1685 2.38307
rclavicle -9.2e-014 -3.57812e-014
rhumerus -55.7551 -20.8358 25.3156
rradius 24.568
rwrist -63.0614
rhand -49.6941 14.7693
rfingers 7.12502
rthumb -22.2954 -13.9645
lclavicle -9.2e-014 -3.57812e-014
lhumerus -64.9582 39.5235 -47.2996
lradius 21.8815
lwrist -15.5782
lhand 6.24495 74.7458
lfingers 7.12502
lthumb 31.5567 617.96
rfemur -9.80924 17.9302 27.4698
rtibia 18.2066
rfoot 3.32129 -14.816
rtoes -14.2066
lfemur -44.9152 -9.86252 -10.72
ltibia 37.1115
lfoot 6.35689 7.07418
ltoes 6.88499
422
root 11.3277 16.9877 -9.86011 13.5393 -45.1187 0.620775
lowerback 4.7555 1.32059 1.32879
upperback -6.89027 1.94714 1.06649
thorax -9.9755 0.871397 0.137399
lowerneck 0.846954 4.84631 -1.54808
upperneck 2.79801 6.31849 6.34539
head 0.459456 3.17675 2.24487
rclavicle -1.21234e-013 -2.38542e-014
rhumerus -58.4929 -19.8124 29.2463
rradius 24.1197
rwrist -61.5025
rhand -52.208 17.7697
rfingers 7.12502
rthumb -24.7069 -10.655
lclavicle -1.21234e-013 -2.38542e-014
lhumerus -69.0316 38.5888 -53.8744
lradius 21.4783
lwrist -19.4245
lhand 7.11977 76.3237
lfingers 7.12502
lthumb 32.3897 616.549
rfemur -9.9471 17.9526 27.6493
rtibia 17.8565
rfoot 3.9329 -14.6673
rtoes -16.839
lfemur -45.2812 -10.2079 -10.0543
ltibia 35.8903
lfoot 7.01824 7.438
ltoes 7.23882
423
root 11.3085 16.9806 -9.81736 14.1356 -44.798 0.348106
lowerback 4.84893 1.26027 1.6126
upperback -7.0752 1.90707 1.18783
thorax -10.2342 0.831713 0.110236
lowerneck 1.25414 4.87502 -1.52975
upperneck 2.25858 6.39175 5.88715
head 0.235288 3.19814 2.0696
rclavicle 1.00063e-013 2.78299e-014
rhumerus -60.601 -18.3956 32.4066
rradius 23.8681
rwrist -60.4593
rhand -54.5157 20.9097
rfingers 7.12502
rthumb -26.9168 -7.19357
lclavicle 1.00063e-013 2.78299e-014
lhumerus -72.4021 37.5638 -59.8728
lradius 21.0125
lwrist -22.6406
lhand 6.15456 77.5758
lfingers 7.12502
lthumb 31.4706 615.114
rfemur -10.0687 18.0866 27.7727
rtibia 17.5887
rfoot 4.99753 -14.342
rtoes -20.4407
lfemur -45.5992 -10.5357 -9.54912
ltibia 34.6597
lfoot 7.74019 7.23517
ltoes 0.799998
424
root 11.2854 16.9911 -9.77795 14.1693 -44.6837 0.745521
lowerback 4.94561 1.2661 1.32093
upperback -7.21243 1.88736 1.15409
thorax -10.4539 0.840475 0.237008
lowerneck 1.44219 4.80199 -1.51855
upperneck 1.90416 6.31458 5.59104
head 0.106998 3.15201 1.96119
rclavicle -1.63997e-014 -2.78299e-014
rhumerus -62.562 -17.255 35.578
rradius 23.7709
rwrist -58.9286
rhand -56.5273 24.5537
rfingers 7.12502
rthumb -28.84 -3.23742
lclavicle -1.63997e-014 -2.78299e-014
lhumerus -74.3979 36.4325 -63.9261
lradius 20.6689
lwrist -23.6549
lhand 2.5505 78.5969
lfingers 7.12502
lthumb 28.0309 613.477
rfemur -10.0606 18.2269 27.38
rtibia 17.23
rfoot 5.70314 -14.1148
rtoes -21.1555
lfemur -45.7375 -10.7037 -9.68781
ltibia 33.48
lfoot 8.52657 7.56111
ltoes -1.35423
425
root 11.2606 17.0114 -9.73823 13.8938 -44.6366 1.40885
lowerback 5.05879 1.29396 0.856248
upperback -7.28743 1.87003 1.01988
thorax -10.6161 0.861279 0.352629
lowerneck 1.37695 4.69313 -1.37371
upperneck 1.81541 6.17729 5.34055
head 0.108735 3.08415 1.8576
rclavicle -3.60794e-014 -2.3059e-014
rhumerus -64.1772 -15.8186 37.8805
rradius 23.747
rwrist -58.032
rhand -58.137 31.7097
rfingers 7.12502
rthumb -30.3766 4.1913
lclavicle -3.60794e-014 -2.3059e-014
lhumerus -75.8217 35.4218 -67.2213
lradius 20.5603
lwrist -24.3873
lhand -0.0920228 79.559
lfingers 7.12502
lthumb 25.5022 612.128
rfemur -9.87391 18.1535 26.8069
rtibia 16.7679
rfoot 5.5352 -14.3013
rtoes -19.574
lfemur -45.6548 -10.8004 -10.1178
ltibia 32.4045
lfoot 8.84716 8.32636
ltoes 1.846
426
root 11.2387 17.0189 -9.69158 13.89 -44.4488 1.44127
lowerback 5.15033 1.27117 1.02769
upperback -7.25779 1.85442 0.968791
thorax -10.6306 0.837922 0.202386
lowerneck 1.20525 4.61124 -1.24273
upperneck 1.88005 6.06813 5.17342
head 0.171043 3.03357 1.78858
rclavicle -5.1361e-014 6.36111e-015
rhumerus -65.2595 -14.1059 39.0646
rradius 23.7206
rwrist -58.1747
rhand -59.29 41.4946
rfingers 7.12502
rthumb -31.4757 14.1849
lclavicle -5.1361e-014 6.36111e-015
lhumerus -76.7518 34.4618 -69.6996
lradius 20.675
lwrist -24.6879
lhand -1.06035 80.526
lfingers 7.12502
lthumb 24.5744 611.031
rfemur -9.42073 17.9095 26.7898
rtibia 16.2419
rfoot 5.18398 -14.3952
rtoes -18.4135
lfemur -45.3813 -10.9605 -10.1132
ltibia 31.3929
lfoot 9.21342 8.51558
ltoes 1.7709
427
root 11.2223 17.015 -9.64363 14.1615 -44.1103 0.926138
lowerback 5.35642 1.17614 1.62322
upperback -7.23539 1.80141 1.06286
thorax -10.7162 0.768592 -0.0266338
lowerneck 1.01773 4.5496 -1.12043
upperneck 2.11327 5.97826 5.03753
head 0.285738 2.99468 1.73436
rclavicle 3.45388e-014 -1.03368e-014
rhumerus -66.0255 -13.1997 40.6337
rradius 23.6196
rwrist -57.3286
rhand -59.6318 50.8709
rfingers 7.12502
rthumb -31.8012 23.6253
lclavicle 3.45388e-014 -1.03368e-014
lhumerus -76.7269 33.3883 -70.4569
lradius 20.9272
lwrist -23.2699
lhand -1.92703 80.8926
lfingers 7.12502
lthumb 23.7434 610.554
rfemur -8.81349 17.7327 27.2521
rtibia 15.657
rfoot 5.2381 -14.3311
rtoes -18.0606
lfemur -45.1156 -11.2738 -9.61168
ltibia 30.4515
lfoot 10.1048 8.71085
ltoes 1.70649
428
root 11.2068 17.0159 -9.60016 14.18 -43.8075 0.884267
lowerback 5.48342 1.04904 1.751
upperback -7.23703 1.65381 1.1386
thorax -10.7958 0.689711 0.00202395
lowerneck 1.02676 4.58033 -1.02242
upperneck 2.10197 6.02232 4.87822
head 0.287332 3.0167 1.66626
rclavicle -5.43179e-014 -2.38542e-014
rhumerus -66.4332 -12.9506 42.2807
rradius 23.4094
rwrist -55.493
rhand -59.218 57.6888
rfingers 7.12502
rthumb -31.4071 30.3658
lclavicle -5.43179e-014 -2.38542e-014
lhumerus -76.2329 32.3049 -70.1668
lradius 21.1918
lwrist -21.2879
lhand -2.29121 80.556
lfingers 7.12502
lthumb 23.3941 610.846
rfemur -8.32117 17.5868 27.32
rtibia 15.0736
rfoot 5.30687 -14.4071
rtoes -17.3209
lfemur -44.9419 -11.6615 -9.44038
ltibia 29.5426
lfoot 10.8068 9.09764
ltoes 2.5199
429
root 11.1845 17.0203 -9.56249 14.0914 -43.6652 1.05218
lowerback 5.42803 0.942934 1.53959
upperback -7.13478 1.49114 1.19948
thorax -10.6555 0.632886 0.210397
lowerneck 0.880999 4.68357 -1.00175
upperneck 1.93584 6.16795 4.7983
head 0.259106 3.08936 1.63763
rclavicle 5.89645e-014 -7.15625e-015
rhumerus -66.4703 -12.8176 42.9818
rradius 23.2536
rwrist -54.0873
rhand -58.8765 61.0596
rfingers 7.12502
rthumb -31.0816 33.6737
lclavicle 5.89645e-014 -7.15625e-015
lhumerus -75.4172 31.2506 -68.9617
lradius 21.3919
lwrist -19.351
lhand -2.49449 80.3533
lfingers 7.12502
lthumb 23.199 611.024
rfemur -8.0422 17.4256 27.2089
rtibia 14.7666
rfoot 5.18455 -14.4161
rtoes -16.5957
lfemur -44.6813 -11.8273 -9.54687
ltibia 28.6167
lfoot 11.4843 8.72827
ltoes 0.831497
430
root 11.1585 17.0251 -9.52681 14.1421 -43.4998 0.927259
lowerback 5.36418 0.866216 1.49009
upperback -6.99684 1.38696 1.28254
thorax -10.466 0.592695 0.343013
lowerneck 0.429943 4.69548 -0.832348
upperneck 2.08682 6.17831 4.69198
head 0.389479 3.10285 1.5912
rclavicle -6.64686e-014 3.18055e-015
rhumerus -66.2264 -12.4168 42.6077
rradius 23.2702
rwrist -53.4932
rhand -58.54 62.7344
rfingers 7.12502
rthumb -30.7609 35.2877
lclavicle -6.64686e-014 3.18055e-015
lhumerus -74.2652 30.6061 -67.1243
lradius 21.4529
lwrist -17.9656
lhand -2.50572 80.1579
lfingers 7.12502
lthumb 23.1883 611.218
rfemur -7.8022 17.4076 27.35
rtibia 14.6841
rfoot 5.13103 -14.5261
rtoes -14.8356
lfemur -44.2598 -11.8888 -9.4669
ltibia 27.6561
lfoot 12.1802 7.96443
ltoes 0.0857127
431
root 11.1369 17.0213 -9.48463 13.925 -43.253 0.942647
lowerback 5.47878 0.823086 1.52205
upperback -6.92081 1.33622 1.29412
thorax -10.4498 0.567117 0.343135
lowerneck 0.0689758 4.62438 -0.717109
upperneck 2.52745 6.06497 4.64827
head 0.594453 3.05664 1.57776
rclavicle -8.1949e-014 -1.59028e-014
rhumerus -65.7091 -12.0207 42.0559
rradius 23.2186
rwrist -52.5723
rhand -58.1536 62.6375
rfingers 7.12502
rthumb -30.3924 35.122
lclavicle -8.1949e-014 -1.59028e-014
lhumerus -72.7896 30.421 -64.7139
lradius 21.6166
lwrist -17.0638
lhand -2.54779 80.057
lfingers 7.12502
lthumb 23.1479 611.314
rfemur -7.35897 17.4074 27.4113
rtibia 14.6523
rfoot 5.46614 -14.817
rtoes -12.9582
lfemur -43.6848 -12.1476 -9.53268
ltibia 26.84
lfoot 12.4865 7.55273
ltoes 0.873138
432
root 11.1167 17.0239 -9.43981 13.5814 -43.0364 1.02571
lowerback 5.62767 0.767389 1.55093
upperback -6.87033 1.2688 1.29971
thorax -10.4829 0.53286 0.34073
lowerneck -0.203611 4.62999 -0.687316
upperneck 3.15803 6.04538 4.68807
head 0.836909 3.05817 1.60726
rclavicle -1.00063e-013 -1.66979e-014
rhumerus -64.907 -12.3103 41.8088
rradius 23.0491
rwrist -50.8864
rhand -57.9592 59.6521
rfingers 7.12502
rthumb -30.2069 32.1025
lclavicle -1.00063e-013 -1.66979e-014
lhumerus -71.3673 30.5774 -62.4255
lradius 21.9052
lwrist -16.8199
lhand -3.31878 80.2591
lfingers 7.12502
lthumb 22.408 611.021
rfemur -6.85456 17.3339 27.4393
rtibia 14.6779
rfoot 5.78947 -15.0181
rtoes -13.2156
lfemur -43.0554 -12.3566 -9.78918
ltibia 26.2365
lfoot 12.6174 6.62366
ltoes -2.60095
433
root 11.0948 17.0255 -9.39286 13.4517 -42.8729 0.985101
lowerback 5.5423 0.741982 1.60388
upperback -6.85567 1.24008 1.33108
thorax -10.4149 0.516781 0.349803
lowerneck -0.43674 4.63506 -0.580674
upperneck 3.84594 6.02176 4.69912
head 1.09567 3.05838 1.61598
rclavicle 3.56073e-014 5.56597e-015
rhumerus -63.9218 -13.1278 41.5895
rradius 22.9702
rwrist -49.1466
rhand -57.8158 55.3787
rfingers 7.12502
rthumb -30.0701 27.8041
lclavicle 3.56073e-014 5.56597e-015
lhumerus -69.892 31.2667 -60.3686
lradius 22.0314
lwrist -17.0259
lhand -3.82632 79.9292
lfingers 7.12502
lthumb 21.9207 611.293
rfemur -6.58812 17.2234 27.5357
rtibia 14.8668
rfoot 5.8943 -15.2256
rtoes -14.2199
lfemur -42.5848 -12.4328 -10.0121
ltibia 25.773
lfoot 12.3995 5.62477
ltoes -6.14244
